<svg width="35" height="35" viewBox="0 0 35 35" fill="none" xmlns="http://www.w3.org/2000/svg">
<path d="M12.1926 1.15117C8.69551 2.36433 5.67967 4.66694 3.588 7.72079C1.49633 10.7746 0.439094 14.4188 0.571577 18.1179C0.70406 21.817 2.01928 25.3761 4.32405 28.2725C6.62883 31.1689 9.80167 33.2499 13.3765 34.2098C16.2748 34.9576 19.3113 34.9905 22.225 34.3055C24.8645 33.7126 27.3048 32.4444 29.307 30.625C31.3908 28.6736 32.9034 26.1912 33.682 23.4445C34.5284 20.4577 34.679 17.3166 34.1222 14.2625H17.8472V21.0137H27.2726C27.0843 22.0904 26.6806 23.1181 26.0858 24.0352C25.491 24.9524 24.7172 25.7401 23.8109 26.3512C22.66 27.1125 21.3625 27.6248 20.0019 27.8551C18.6373 28.1088 17.2376 28.1088 15.873 27.8551C14.4899 27.5691 13.1816 26.9983 12.0312 26.1789C10.1832 24.8707 8.79558 23.0123 8.06638 20.8688C7.32486 18.6851 7.32486 16.3177 8.06638 14.134C8.58544 12.6033 9.44351 11.2097 10.5765 10.057C11.8732 8.71376 13.5147 7.75359 15.3211 7.28185C17.1275 6.81012 19.0289 6.84505 20.8168 7.38281C22.2134 7.81154 23.4906 8.56061 24.5465 9.57032C25.6092 8.51302 26.6702 7.453 27.7293 6.39024C28.2761 5.81875 28.8722 5.27461 29.4109 4.68946C27.7992 3.18959 25.9073 2.0225 23.8437 1.25508C20.0859 -0.1094 15.9741 -0.146069 12.1926 1.15117Z" fill="white"/>
<path d="M12.1926 1.15116C15.9739 -0.146965 20.0856 -0.111261 23.8438 1.25233C25.9077 2.02497 27.7987 3.19767 29.4082 4.70311C28.8613 5.28827 28.2844 5.83514 27.7266 6.40389C26.6656 7.46301 25.6056 8.51848 24.5465 9.5703C23.4906 8.5606 22.2134 7.81153 20.8168 7.3828C19.0296 6.84315 17.1282 6.8062 15.3213 7.276C13.5144 7.74581 11.8719 8.70422 10.5738 10.0461C9.44081 11.1987 8.58274 12.5924 8.06368 14.123L2.39532 9.73436C4.42425 5.7109 7.93722 2.63326 12.1926 1.15116Z" fill="#E33629"/>
<path d="M0.891423 14.082C1.19609 12.5721 1.7019 11.1098 2.39533 9.73438L8.06369 14.134C7.32217 16.3177 7.32217 18.6851 8.06369 20.8688C6.17515 22.3271 4.28569 23.7927 2.39533 25.2656C0.659413 21.8102 0.129989 17.8732 0.891423 14.082Z" fill="#F8BD00"/>
<path d="M17.8473 14.2598H34.1223C34.679 17.3139 34.5284 20.455 33.6821 23.4418C32.9034 26.1884 31.3909 28.6709 29.3071 30.6223C27.4778 29.1949 25.6403 27.7785 23.811 26.3512C24.7179 25.7394 25.492 24.9509 26.0868 24.0328C26.6816 23.1147 27.085 22.0859 27.2727 21.0082H17.8473C17.8446 18.7605 17.8473 16.5102 17.8473 14.2598Z" fill="#587DBD"/>
<path d="M2.39258 25.2656C4.28294 23.8073 6.1724 22.3417 8.06094 20.8687C8.79158 23.013 10.1812 24.8716 12.0312 26.1789C13.1852 26.9945 14.4964 27.5607 15.8813 27.8414C17.2459 28.0951 18.6455 28.0951 20.0102 27.8414C21.3708 27.6111 22.6682 27.0988 23.8191 26.3375C25.6484 27.7648 27.4859 29.1812 29.3152 30.6086C27.3134 32.4289 24.873 33.6981 22.2332 34.2918C19.3195 34.9768 16.283 34.9439 13.3848 34.1961C11.0925 33.5841 8.95146 32.5051 7.0957 31.0269C5.1315 29.4675 3.52722 27.5023 2.39258 25.2656Z" fill="#319F43"/>
</svg>
