<svg width="64" height="64" viewBox="0 0 64 64" fill="none" xmlns="http://www.w3.org/2000/svg">
<path d="M41.8853 56.7813C41.3852 57.2813 40.7071 57.5621 40 57.5621C39.2929 57.5621 38.6147 57.2813 38.1147 56.7813L33.8853 52.552C33.3854 52.0519 33.1046 51.3738 33.1046 50.6667C33.1046 49.9596 33.3854 49.2814 33.8853 48.7813L48.7813 33.8853C49.2814 33.3854 49.9595 33.1046 50.6667 33.1046C51.3738 33.1046 52.0519 33.3854 52.552 33.8853L56.7813 38.1147C57.2812 38.6148 57.5621 39.2929 57.5621 40C57.5621 40.7071 57.2812 41.3853 56.7813 41.8853L41.8853 56.7813Z" stroke="#605A7D" stroke-width="5.33263" stroke-linecap="round" stroke-linejoin="round"/>
<path d="M48 34.6667L44.3333 16.336C44.2336 15.8373 43.9933 15.3775 43.6408 15.0109C43.2884 14.6442 42.8384 14.386 42.344 14.2667L8.62666 5.40803C8.18247 5.30063 7.71813 5.30919 7.2782 5.43288C6.83827 5.55658 6.4375 5.79125 6.11436 6.11439C5.79122 6.43753 5.55654 6.8383 5.43285 7.27823C5.30916 7.71816 5.3006 8.1825 5.408 8.62669L14.2667 42.344C14.386 42.8384 14.6442 43.2884 15.0108 43.6409C15.3775 43.9934 15.8373 44.2336 16.336 44.3334L34.6667 48" stroke="#605A7D" stroke-width="5.33263" stroke-linecap="round" stroke-linejoin="round"/>
<path d="M6.13336 6.1333L25.5627 25.5626" stroke="#605A7D" stroke-width="5.33263" stroke-linecap="round" stroke-linejoin="round"/>
<path d="M29.3333 34.6667C32.2789 34.6667 34.6667 32.2789 34.6667 29.3333C34.6667 26.3878 32.2789 24 29.3333 24C26.3878 24 24 26.3878 24 29.3333C24 32.2789 26.3878 34.6667 29.3333 34.6667Z" stroke="#605A7D" stroke-width="5.33263" stroke-linecap="round" stroke-linejoin="round"/>
</svg>
