<svg width="64" height="64" viewBox="0 0 64 64" fill="none" xmlns="http://www.w3.org/2000/svg">
<path d="M26.6666 39.0934V43.4294C26.6566 44.343 26.4119 45.2388 25.9562 46.0307C25.5004 46.8227 24.8489 47.4843 24.064 47.952C22.3977 49.1862 21.0422 50.792 20.1053 52.6418C19.1683 54.4916 18.6757 56.5345 18.6666 58.608" stroke="white" stroke-width="5.33263" stroke-linecap="round" stroke-linejoin="round"/>
<path d="M37.3334 39.0934V43.4294C37.3434 44.343 37.5881 45.2388 38.0438 46.0307C38.4996 46.8227 39.1511 47.4843 39.936 47.952C41.6023 49.1862 42.9578 50.792 43.8947 52.6418C44.8317 54.4916 45.3243 56.5345 45.3334 58.608" stroke="white" stroke-width="5.33263" stroke-linecap="round" stroke-linejoin="round"/>
<path d="M48 24H52C53.7681 24 55.4638 23.2976 56.714 22.0474C57.9643 20.7971 58.6667 19.1014 58.6667 17.3333C58.6667 15.5652 57.9643 13.8695 56.714 12.6193C55.4638 11.369 53.7681 10.6667 52 10.6667H48" stroke="white" stroke-width="5.33263" stroke-linecap="round" stroke-linejoin="round"/>
<path d="M10.6666 58.6667H53.3333" stroke="white" stroke-width="5.33263" stroke-linecap="round" stroke-linejoin="round"/>
<path d="M16 24C16 28.2435 17.6857 32.3131 20.6863 35.3137C23.6869 38.3143 27.7565 40 32 40C36.2435 40 40.3131 38.3143 43.3137 35.3137C46.3143 32.3131 48 28.2435 48 24V8.00001C48 7.29277 47.7191 6.61449 47.219 6.11439C46.7189 5.61429 46.0406 5.33334 45.3333 5.33334H18.6667C17.9594 5.33334 17.2811 5.61429 16.781 6.11439C16.281 6.61449 16 7.29277 16 8.00001V24Z" stroke="white" stroke-width="5.33263" stroke-linecap="round" stroke-linejoin="round"/>
<path d="M16 24H12C10.2319 24 8.53624 23.2976 7.286 22.0474C6.03575 20.7971 5.33337 19.1014 5.33337 17.3333C5.33337 15.5652 6.03575 13.8695 7.286 12.6193C8.53624 11.369 10.2319 10.6667 12 10.6667H16" stroke="white" stroke-width="5.33263" stroke-linecap="round" stroke-linejoin="round"/>
</svg>
